# xmcd
#
# Track frame offsets: 
#        150
#        36221
#        62295
#        94214
#        114379
#        128491
#        158445
#
# Disc length: 2420 seconds
#
# Revision: 0
# Processed by: cddbd v1.5.2PL0 Copyright (c) Steve Scherf et al.
# Submitted via: ExactAudioCopy v0.99pb4
#
DISCID=48097207
DTITLE=Seelow and Mayer Formation - Mr. Dynamite
DYEAR=1970
DGENRE=Jazz
TTITLE0=Mr. Dynamite Part I
TTITLE1=Mr. Dynamite Part II
TTITLE2=Mr. Dynamite Part III
TTITLE3=The Swinger From Rio
TTITLE4=Danny's Walk
TTITLE5=Masquerade
TTITLE6=With A Little Help From My Friends
EXTD=
EXTT0=
EXTT1=
EXTT2=
EXTT3=
EXTT4=
EXTT5=
EXTT6=
PLAYORDER=
